<mxfile host="app.diagrams.net" modified="2024-07-25T15:14:48.507Z" agent="Mozilla/5.0 (Windows NT 10.0; Win64; x64) AppleWebKit/537.36 (KHTML, like Gecko) Chrome/126.0.0.0 Safari/537.36" version="24.7.1" etag="JoyC8UwyJy1T2m72IbQZ" type="github">
  <diagram name="PÃ¡gina-1" id="fBjozmH5g9LPXwPSqIZD">
    <mxGraphModel>
      <root>
        <mxCell id="0" />
        <mxCell id="1" parent="0" />
      </root>
    </mxGraphModel>
  </diagram>
</mxfile>
